<svg width="25" height="25" viewBox="0 0 25 25" fill="none" xmlns="http://www.w3.org/2000/svg">
<g id="eye">
<g id="Vector">
<path d="M10.6074 12.8329C10.6074 13.3618 10.8175 13.869 11.1915 14.243C11.5655 14.617 12.0727 14.8271 12.6016 14.8271C13.1305 14.8271 13.6378 14.617 14.0118 14.243C14.3858 13.869 14.5959 13.3618 14.5959 12.8329C14.5959 12.304 14.3858 11.7967 14.0118 11.4227C13.6378 11.0487 13.1305 10.8386 12.6016 10.8386C12.0727 10.8386 11.5655 11.0487 11.1915 11.4227C10.8175 11.7967 10.6074 12.304 10.6074 12.8329Z" stroke="#3A3A3A" stroke-width="1.99426" stroke-linecap="round" stroke-linejoin="round"/>
<path d="M21.5758 12.8329C19.1827 16.8214 16.1913 18.8157 12.6016 18.8157C9.01195 18.8157 6.02056 16.8214 3.62744 12.8329C6.02056 8.84436 9.01195 6.8501 12.6016 6.8501C16.1913 6.8501 19.1827 8.84436 21.5758 12.8329Z" stroke="#3A3A3A" stroke-width="1.99426" stroke-linecap="round" stroke-linejoin="round"/>
</g>
</g>
</svg>
