<svg width="25" height="25" viewBox="0 0 25 25" fill="none" xmlns="http://www.w3.org/2000/svg">
<g id="flat-color-icons:google">
<path id="Vector" d="M22.349 10.7422H21.5435V10.7007H12.5435V14.7007H18.195C17.3705 17.0292 15.155 18.7007 12.5435 18.7007C9.22996 18.7007 6.54346 16.0142 6.54346 12.7007C6.54346 9.38718 9.22996 6.70068 12.5435 6.70068C14.073 6.70068 15.4645 7.27768 16.524 8.22018L19.3525 5.39168C17.5665 3.72718 15.1775 2.70068 12.5435 2.70068C7.02096 2.70068 2.54346 7.17818 2.54346 12.7007C2.54346 18.2232 7.02096 22.7007 12.5435 22.7007C18.066 22.7007 22.5435 18.2232 22.5435 12.7007C22.5435 12.0302 22.4745 11.3757 22.349 10.7422Z" fill="#FFC107"/>
<path id="Vector_2" d="M3.69629 8.04618L6.98179 10.4557C7.87079 8.25468 10.0238 6.70068 12.5433 6.70068C14.0728 6.70068 15.4643 7.27768 16.5238 8.22018L19.3523 5.39168C17.5663 3.72718 15.1773 2.70068 12.5433 2.70068C8.70229 2.70068 5.37129 4.86918 3.69629 8.04618Z" fill="#FF3D00"/>
<path id="Vector_3" d="M12.5436 22.7005C15.1266 22.7005 17.4736 21.712 19.2481 20.1045L16.1531 17.4855C15.1154 18.2747 13.8473 18.7016 12.5436 18.7005C9.94261 18.7005 7.73411 17.042 6.90211 14.7275L3.64111 17.24C5.29611 20.4785 8.65711 22.7005 12.5436 22.7005Z" fill="#4CAF50"/>
<path id="Vector_4" d="M22.349 10.7422H21.5435V10.7007H12.5435V14.7007H18.195C17.8006 15.8089 17.0901 16.7773 16.1515 17.4862L16.153 17.4852L19.248 20.1042C19.029 20.3032 22.5435 17.7007 22.5435 12.7007C22.5435 12.0302 22.4745 11.3757 22.349 10.7422Z" fill="#1976D2"/>
</g>
</svg>
